<svg width="16.000000" height="16.000000" viewBox="0 0 16 16" fill="none" xmlns="http://www.w3.org/2000/svg" xmlns:xlink="http://www.w3.org/1999/xlink">
	<desc>
			Created with Pixso.
	</desc>
	<defs>
		<clipPath id="clip2_6825">
			<rect id="trash-outline" width="16.000000" height="16.000000" fill="white" fill-opacity="0"/>
		</clipPath>
	</defs>
	<rect id="trash-outline" width="16.000000" height="16.000000" fill="#FFFFFF" fill-opacity="0"/>
	<g clip-path="url(#clip2_6825)">
		<g opacity="0.000000">
			<path id="Vector" d="M0 0L16 0L16 16L0 16L0 0Z" fill="#FFFFFF" fill-opacity="1.000000" fill-rule="evenodd"/>
		</g>
		<path id="Vector" d="M14 4L10.66 4L10.66 2.88C10.65 2.45 10.46 2.05 10.15 1.76C9.84 1.47 9.42 1.31 9 1.33L7 1.33C6.57 1.31 6.15 1.47 5.84 1.76C5.53 2.05 5.34 2.45 5.33 2.88L5.33 4L2 4C1.82 4 1.65 4.07 1.52 4.19C1.4 4.32 1.33 4.48 1.33 4.66C1.33 4.84 1.4 5.01 1.52 5.13C1.65 5.26 1.82 5.33 2 5.33L2.66 5.33L2.66 12.66C2.66 13.19 2.87 13.7 3.25 14.08C3.62 14.45 4.13 14.66 4.66 14.66L11.33 14.66C11.86 14.66 12.37 14.45 12.74 14.08C13.12 13.7 13.33 13.19 13.33 12.66L13.33 5.33L14 5.33C14.17 5.33 14.34 5.26 14.47 5.13C14.59 5.01 14.66 4.84 14.66 4.66C14.66 4.48 14.59 4.32 14.47 4.19C14.34 4.07 14.17 4 14 4ZM6.66 2.88C6.66 2.78 6.8 2.66 7 2.66L9 2.66C9.19 2.66 9.33 2.78 9.33 2.88L9.33 4L6.66 4L6.66 2.88ZM12 12.66C12 12.84 11.92 13.01 11.8 13.13C11.67 13.26 11.51 13.33 11.33 13.33L4.66 13.33C4.48 13.33 4.32 13.26 4.19 13.13C4.07 13.01 4 12.84 4 12.66L4 5.33L12 5.33L12 12.66Z" fill="#FFFFFF" fill-opacity="1.000000" fill-rule="nonzero"/>
	</g>
</svg>
