<svg width="200" height="200" viewBox="0 0 200 200" fill="none" xmlns="http://www.w3.org/2000/svg">
<g clip-path="url(#clip0_340_4625)">
<path d="M27 60.75L98 99.3333C98.6155 99.6616 99.3024 99.8333 100 99.8333C100.698 99.8333 101.384 99.6616 102 99.3333L173 60.75C173.648 60.4301 174.187 59.9259 174.549 59.3008C174.911 58.6757 175.081 57.9576 175.036 57.2364C174.992 56.5153 174.735 55.8235 174.299 55.2477C173.862 54.6719 173.266 54.2378 172.583 54L101.583 25C100.569 24.5833 99.4311 24.5833 98.4167 25L27.4167 54C26.7344 54.2378 26.1377 54.6719 25.7013 55.2477C25.2649 55.8235 25.0083 56.5153 24.9638 57.2364C24.9193 57.9576 25.0888 58.6757 25.4511 59.3008C25.8133 59.9259 26.3522 60.4301 27 60.75V60.75Z" fill="#8C61FF"/>
<path d="M172.583 88.8333L157.333 82.3333L102 112.417C101.384 112.745 100.698 112.917 100 112.917C99.3024 112.917 98.6155 112.745 98 112.417L42.6667 82.3333L27.4167 88.8333C26.7708 89.1724 26.23 89.6816 25.8527 90.3058C25.4753 90.93 25.2759 91.6456 25.2759 92.375C25.2759 93.1044 25.4753 93.82 25.8527 94.4442C26.23 95.0684 26.7708 95.5776 27.4167 95.9167L98.4167 136.75C99.0188 137.118 99.7109 137.313 100.417 137.313C101.122 137.313 101.815 137.118 102.417 136.75L173.417 95.9167C174.031 95.5075 174.521 94.9362 174.831 94.266C175.141 93.5957 175.259 92.8527 175.173 92.1193C175.087 91.3859 174.799 90.6907 174.342 90.1107C173.885 89.5308 173.276 89.0886 172.583 88.8333V88.8333Z" fill="#8C61FF"/>
<path d="M172.583 125.833L159.583 120.167L102 151.5C101.384 151.828 100.698 152 100 152C99.3024 152 98.6155 151.828 98 151.5L40.4167 120.167L27.4167 125.833C26.7525 126.178 26.1957 126.698 25.8071 127.337C25.4185 127.976 25.213 128.71 25.213 129.458C25.213 130.206 25.4185 130.94 25.8071 131.579C26.1957 132.219 26.7525 132.739 27.4167 133.083L98.4167 174.75C99.0322 175.078 99.7191 175.25 100.417 175.25C101.114 175.25 101.801 175.078 102.417 174.75L173.417 133.083C174.05 132.668 174.555 132.086 174.877 131.4C175.198 130.715 175.322 129.953 175.236 129.201C175.149 128.449 174.855 127.736 174.387 127.141C173.919 126.546 173.294 126.094 172.583 125.833Z" fill="#8C61FF"/>
</g>
<defs>
<clipPath id="clip0_340_4625">
<rect width="200" height="200" fill="white"/>
</clipPath>
</defs>
</svg>
